<?xml version="1.0" encoding="utf-8"?>
<!-- Generator: Adobe Illustrator 16.0.0, SVG Export Plug-In . SVG Version: 6.00 Build 0)  -->
<!DOCTYPE svg PUBLIC "-//W3C//DTD SVG 1.1//EN" "http://www.w3.org/Graphics/SVG/1.1/DTD/svg11.dtd">
<svg version="1.1" id="Layer_1" xmlns="http://www.w3.org/2000/svg" xmlns:xlink="http://www.w3.org/1999/xlink" x="0px" y="0px"
	 width="100px" height="50px" viewBox="0 0 100 50" enable-background="new 0 0 100 50" xml:space="preserve">
<path id="Blue_1_" fill="#3B5998" d="M47.454,50c1.531,0,2.772-1.24,2.772-2.771V2.546c0-1.531-1.242-2.772-2.772-2.772H2.772
	C1.241-0.226,0,1.015,0,2.546v44.683C0,48.76,1.241,50,2.772,50H47.454z"/>
<path id="f" fill="#FFFFFF" d="M34.655,50V30.55h6.529l0.977-7.58h-7.506V18.13c0-2.195,0.609-3.69,3.756-3.69l4.014-0.002V7.659
	c-0.694-0.092-3.077-0.299-5.849-0.299c-5.787,0-9.75,3.533-9.75,10.02v5.59h-6.545v7.58h6.545V50H34.655z"/>
<g>
	<path fill="#5FA9DD" d="M67.383,43.949c-5.513,0-10.645-1.615-14.965-4.385c0.764,0.089,1.541,0.136,2.33,0.136
		c4.572,0,8.781-1.561,12.123-4.179c-4.271-0.079-7.878-2.901-9.119-6.78c0.596,0.115,1.208,0.176,1.837,0.176
		c0.89,0,1.753-0.119,2.571-0.342c-4.466-0.898-7.83-4.843-7.83-9.573c0-0.041,0-0.082,0.001-0.123
		c1.315,0.731,2.82,1.171,4.421,1.221c-2.619-1.75-4.343-4.738-4.343-8.125c0-1.789,0.481-3.466,1.321-4.907
		c4.815,5.906,12.008,9.792,20.122,10.199c-0.166-0.714-0.254-1.459-0.254-2.225c0-5.391,4.371-9.762,9.763-9.762
		c2.809,0,5.345,1.185,7.126,3.083c2.223-0.438,4.312-1.25,6.198-2.369c-0.729,2.279-2.277,4.193-4.292,5.401
		c1.976-0.236,3.856-0.76,5.606-1.537c-1.309,1.958-2.963,3.677-4.871,5.054c0.02,0.418,0.028,0.839,0.028,1.263
		C95.157,29.075,85.339,43.949,67.383,43.949"/>
</g>
</svg>
